<?xml version="1.0" encoding="utf-8"?>
<!-- Generator: Adobe Illustrator 27.5.0, SVG Export Plug-In . SVG Version: 6.00 Build 0)  -->
<svg version="1.1" xmlns="http://www.w3.org/2000/svg" xmlns:xlink="http://www.w3.org/1999/xlink" x="0px" y="0px"
	 viewBox="0 0 500 500" style="enable-background:new 0 0 500 500;" xml:space="preserve">
<g id="BACKGROUND">
	<g>
		<linearGradient id="SVGID_1_" gradientUnits="userSpaceOnUse" x1="496.4679" y1="-0.24" x2="2.3011" y2="501.4898">
			<stop  offset="0" style="stop-color:#FFFFFF"/>
			<stop  offset="1" style="stop-color:#FEFEFE"/>
		</linearGradient>
		
	</g>
</g>
<g id="OBJECTS">
	<g>
		
			<linearGradient id="SVGID_00000114785026738289197370000011670887664115380671_" gradientUnits="userSpaceOnUse" x1="301.4977" y1="127.4328" x2="170.9861" y2="350.4209">
			<stop  offset="0.0056" style="stop-color:#3F231F"/>
			<stop  offset="0.0843" style="stop-color:#664C2D"/>
			<stop  offset="0.382" style="stop-color:#A69158"/>
			<stop  offset="0.5618" style="stop-color:#E5D9BC"/>
			<stop  offset="0.7973" style="stop-color:#998260"/>
			<stop  offset="0.8034" style="stop-color:#97805E"/>
			<stop  offset="0.9551" style="stop-color:#7D5534"/>
		</linearGradient>
		<path style="fill:url(#SVGID_00000114785026738289197370000011670887664115380671_);" d="M188.277,250
			c0.652,0,1.181-0.529,1.181-1.181v-38.14l2.822,3.199v34.941c0,0.652,0.529,1.181,1.181,1.181c0.652,0,1.181-0.529,1.181-1.181
			v-34.905l3.082-3.082v37.987c0,0.652,0.529,1.181,1.181,1.181s1.181-0.529,1.181-1.181v-39.652h100.37v39.652
			c0,0.652,0.529,1.181,1.181,1.181c0.652,0,1.181-0.529,1.181-1.181V210.82l3.094,3.094v34.905c0,0.652,0.529,1.181,1.181,1.181
			c0.652,0,1.181-0.529,1.181-1.181v-34.945l2.81-3.185v38.13c0,0.652,0.529,1.181,1.181,1.181s1.181-0.529,1.181-1.181v-41.258
			c0-0.008-0.004-0.015-0.004-0.023c-0.002-0.1-0.029-0.193-0.055-0.29c-0.015-0.061-0.013-0.122-0.035-0.184
			c-0.035-0.071-0.083-0.13-0.13-0.201c-0.047-0.071-0.094-0.13-0.165-0.189l-10.545-10.533l-0.035-0.047
			c-0.059-0.047-0.118-0.106-0.177-0.142c-0.006,0-0.009-0.003-0.012-0.006c-0.005-0.003-0.007-0.008-0.012-0.011
			c-0.015-0.009-0.032-0.009-0.047-0.018c-0.048-0.026-0.098-0.053-0.142-0.071c-0.059-0.024-0.118-0.047-0.189-0.059
			c-0.004-0.001-0.008-0.001-0.011-0.002c-0.041-0.009-0.081-0.012-0.122-0.017c-0.043-0.006-0.086-0.017-0.126-0.017h-27.997
			v-3.306v-4.534v-3.306h2.244c3.696,0,6.707-3.011,6.707-6.707c0-3.708-3.011-6.719-6.707-6.719h-2.244v-2.787h8.596
			c0.083,0,0.165-0.012,0.248-0.024c0.13-0.024,0.248-0.059,0.354-0.118l10.97-5.88c0.035-0.012,0.071-0.035,0.106-0.059
			c0.095-0.047,0.177-0.106,0.248-0.177c0.003-0.003,0.006-0.008,0.01-0.011c0.007-0.007,0.011-0.014,0.018-0.021
			c0.049-0.049,0.098-0.098,0.138-0.157c0-0.012,0.012-0.012,0.012-0.012c0.024-0.035,0.035-0.083,0.059-0.118
			c0.011-0.018,0.013-0.036,0.022-0.055c0.006-0.014,0.011-0.029,0.017-0.043c0.01-0.026,0.026-0.053,0.032-0.079
			c0.012-0.012,0.012-0.024,0.012-0.047c0.035-0.094,0.047-0.201,0.047-0.307v-12.54c0-0.095-0.012-0.177-0.035-0.26
			c-0.007-0.049-0.03-0.094-0.049-0.141c-0.01-0.027-0.016-0.053-0.027-0.079c-0.003-0.005-0.003-0.011-0.006-0.016
			c0-0.012,0-0.012-0.012-0.024c-0.035-0.071-0.071-0.142-0.13-0.212c-0.022-0.026-0.047-0.046-0.07-0.07
			c-0.016-0.017-0.031-0.032-0.048-0.048c-0.024-0.023-0.045-0.049-0.072-0.072c-0.024-0.023-0.059-0.047-0.083-0.059l-9.317-7.404
			c-0.201-0.165-0.46-0.248-0.732-0.248h-0.081c-0.007,0-0.013,0-0.02,0h-67.144c-0.007,0-0.014,0-0.02,0h-0.077
			c-0.272,0-0.531,0.083-0.744,0.248l-9.305,7.404c-0.024,0.012-0.059,0.035-0.083,0.059c-0.024,0.021-0.043,0.045-0.065,0.066
			c-0.022,0.02-0.042,0.041-0.063,0.063c-0.019,0.021-0.042,0.038-0.061,0.061c-0.059,0.071-0.094,0.142-0.13,0.212
			c-0.012,0.012-0.012,0.012-0.012,0.024c-0.001,0.002-0.002,0.005-0.003,0.008c-0.016,0.034-0.025,0.07-0.037,0.107
			c-0.015,0.041-0.037,0.079-0.043,0.122c-0.024,0.083-0.035,0.165-0.035,0.26v12.54c0,0.106,0.012,0.213,0.047,0.307
			c0,0.023,0,0.035,0.012,0.047c0.004,0.021,0.018,0.043,0.026,0.065c0.009,0.023,0.017,0.046,0.027,0.068
			c0.007,0.015,0.009,0.029,0.018,0.044c0.024,0.035,0.036,0.083,0.059,0.118c0,0,0.012,0,0.012,0.012
			c0.036,0.053,0.081,0.097,0.125,0.143c0.012,0.013,0.022,0.027,0.035,0.04c0.002,0.002,0.004,0.004,0.006,0.006
			c0.071,0.071,0.153,0.13,0.248,0.177c0.035,0.023,0.07,0.047,0.106,0.059c0.001,0,0.001,0.001,0.002,0.001l10.957,5.88
			c0.118,0.059,0.236,0.094,0.366,0.118c0.071,0.012,0.154,0.024,0.236,0.024h8.596v2.787h-2.232c-3.708,0-6.719,3.011-6.719,6.719
			c0,3.696,3.011,6.707,6.719,6.707h2.232v3.306v4.534v3.306h-27.997c-0.04,0-0.08,0.013-0.12,0.017
			c-0.041,0.004-0.08,0.008-0.12,0.017c-0.108,0.023-0.21,0.063-0.309,0.119c-0.025,0.014-0.054,0.014-0.079,0.03
			c-0.006,0.004-0.009,0.01-0.015,0.014c-0.002,0.001-0.003,0.003-0.006,0.003c-0.059,0.035-0.13,0.094-0.177,0.142l-0.035,0.047
			l-10.545,10.533c-0.024,0.022-0.034,0.053-0.056,0.077c-0.094,0.098-0.177,0.201-0.231,0.319
			c-0.029,0.061-0.032,0.125-0.049,0.189c-0.023,0.085-0.052,0.167-0.055,0.254c-0.001,0.016-0.01,0.031-0.01,0.047v41.258
			C187.096,249.471,187.625,250,188.277,250z M193.511,211.703l-3.614-4.097l8.807-8.795l2.99,4.709l-0.002,0.002l-3.625,3.625
			L193.511,211.703z M228.083,198.115h44.375h27.034l-2.789,4.393h-92.856l-2.79-4.393H228.083z M201.75,206.805l1.937-1.936h93.179
			l1.937,1.936H201.75z M310.648,207.611l-3.609,4.09l-4.565-4.553l-3.613-3.625l-0.004-0.004l2.99-4.709l0.001,0.001l8.797,8.797
			L310.648,207.611z M229.263,189.093h42.014v2.173h-42.014V189.093z M218.854,166.032l-4.516-5.19v-11.83l3.06-6.538h65.752
			l3.06,6.538v11.83l-4.516,5.19h-9.237h-44.375H218.854z M208.386,160.103V149.93h3.59v10.173H208.386z M292.166,149.93v10.173
			h-3.594V149.93H292.166z M287.313,163.174l-0.001,0.001l0.618-0.71h0.708l-0.002,0.001L287.313,163.174z M289.952,147.568h-1.81
			l-1.073-2.293l2.878,2.288L289.952,147.568z M213.476,145.285L213.476,145.285l-1.069,2.284h-1.806l0.006-0.005L213.476,145.285z
			 M211.915,162.465h0.704l0.614,0.706l-1.316-0.705L211.915,162.465z M229.263,168.393h42.014v2.787h-42.014V168.393z
			 M220.313,177.899c0-2.397,1.96-4.357,4.357-4.357h3.413h44.375h3.424c2.397,0,4.345,1.96,4.345,4.357s-1.948,4.345-4.345,4.345
			h-3.424h-44.375h-3.413C222.273,182.244,220.313,180.296,220.313,177.899z M271.277,184.606v2.126h-42.014v-2.126H271.277z
			 M229.263,193.628h42.014v2.126h-42.014V193.628z"/>
		
			<linearGradient id="SVGID_00000151507411306215639070000000034095248791986059_" gradientUnits="userSpaceOnUse" x1="350.5392" y1="156.1362" x2="220.0271" y2="379.1251">
			<stop  offset="0.0056" style="stop-color:#3F231F"/>
			<stop  offset="0.0843" style="stop-color:#664C2D"/>
			<stop  offset="0.382" style="stop-color:#A69158"/>
			<stop  offset="0.5618" style="stop-color:#E5D9BC"/>
			<stop  offset="0.7973" style="stop-color:#998260"/>
			<stop  offset="0.8034" style="stop-color:#97805E"/>
			<stop  offset="0.9551" style="stop-color:#7D5534"/>
		</linearGradient>
		<path style="fill:url(#SVGID_00000151507411306215639070000000034095248791986059_);" d="M313.429,348.219
			c0.004-0.037,0.011-0.072,0.012-0.11c0-0.01,0.003-0.02,0.003-0.03v-41.258c0-0.652-0.529-1.181-1.181-1.181
			s-1.181,0.529-1.181,1.181v38.129l-2.81-3.185v-34.944c0-0.652-0.529-1.181-1.181-1.181c-0.652,0-1.181,0.529-1.181,1.181v34.905
			l-3.094,3.094v-37.999c0-0.652-0.529-1.181-1.181-1.181c-0.652,0-1.181,0.529-1.181,1.181v39.652h-100.37v-39.652
			c0-0.652-0.529-1.181-1.181-1.181s-1.181,0.529-1.181,1.181v37.987l-3.082-3.082v-34.905c0-0.652-0.529-1.181-1.181-1.181
			c-0.652,0-1.181,0.529-1.181,1.181v34.94l-2.822,3.199v-38.139c0-0.652-0.529-1.181-1.181-1.181c-0.652,0-1.181,0.529-1.181,1.181
			v41.258c0,0.016,0.009,0.031,0.01,0.046c0.003,0.085,0.032,0.165,0.054,0.248c0.018,0.066,0.022,0.133,0.051,0.196
			c0.05,0.109,0.13,0.204,0.215,0.297c0.028,0.031,0.04,0.071,0.072,0.099l10.58,10.58c0.047,0.047,0.118,0.106,0.177,0.142
			c0.004,0,0.006,0.002,0.008,0.004c0.005,0.003,0.008,0.009,0.013,0.012c0.089,0.056,0.183,0.095,0.279,0.125
			c0.115,0.037,0.234,0.059,0.35,0.059h102.732c0.002,0,0.003-0.001,0.005-0.001c0,0,0.001,0,0.001,0
			c0.217,0,0.436-0.059,0.632-0.184c0.004-0.003,0.006-0.007,0.01-0.009c0.004-0.003,0.007-0.007,0.014-0.007
			c0.059-0.035,0.118-0.095,0.177-0.142l10.58-10.58c0.071-0.059,0.118-0.118,0.165-0.189c0.035-0.047,0.071-0.106,0.095-0.153
			c0.003-0.005,0.003-0.01,0.005-0.015c0.012-0.024,0.017-0.049,0.028-0.073C313.391,348.431,313.418,348.326,313.429,348.219z
			 M298.802,348.835l-1.937,1.936h-93.179l-1.937-1.936H298.802z M203.846,353.133h92.857l2.789,4.393h-98.436L203.846,353.133z
			 M198.042,348.457c0.012,0.023,0.035,0.047,0.059,0.059l3.59,3.59l0.007,0.007l-2.995,4.716l-8.807-8.795l3.614-4.097
			L198.042,348.457z M301.849,356.829l-0.001,0.001l-2.995-4.716l3.622-3.622l4.565-4.554l3.609,4.09l-0.003,0.003L301.849,356.829z
			"/>
		
			<linearGradient id="SVGID_00000022522294426799686870000005473033953578482084_" gradientUnits="userSpaceOnUse" x1="274.5607" y1="111.667" x2="144.0488" y2="334.6556">
			<stop  offset="0.0056" style="stop-color:#3F231F"/>
			<stop  offset="0.0843" style="stop-color:#664C2D"/>
			<stop  offset="0.382" style="stop-color:#A69158"/>
			<stop  offset="0.5618" style="stop-color:#E5D9BC"/>
			<stop  offset="0.7973" style="stop-color:#998260"/>
			<stop  offset="0.8034" style="stop-color:#97805E"/>
			<stop  offset="0.9551" style="stop-color:#7D5534"/>
		</linearGradient>
		<path style="fill:url(#SVGID_00000022522294426799686870000005473033953578482084_);" d="M205.824,248.819V213.43
			c0-0.649-0.52-1.181-1.181-1.181c-0.65,0-1.181,0.531-1.181,1.181v35.389c0,0.652,0.529,1.181,1.181,1.181
			S205.824,249.471,205.824,248.819z"/>
		
			<linearGradient id="SVGID_00000136408790547573966100000001187448248149781122_" gradientUnits="userSpaceOnUse" x1="332.7007" y1="145.6945" x2="202.1887" y2="368.6834">
			<stop  offset="0.0056" style="stop-color:#3F231F"/>
			<stop  offset="0.0843" style="stop-color:#664C2D"/>
			<stop  offset="0.382" style="stop-color:#A69158"/>
			<stop  offset="0.5618" style="stop-color:#E5D9BC"/>
			<stop  offset="0.7973" style="stop-color:#998260"/>
			<stop  offset="0.8034" style="stop-color:#97805E"/>
			<stop  offset="0.9551" style="stop-color:#7D5534"/>
		</linearGradient>
		<path style="fill:url(#SVGID_00000136408790547573966100000001187448248149781122_);" d="M250.27,343.391
			c0.661,0,1.181-0.531,1.181-1.181c0-0.65-0.52-1.181-1.181-1.181c-21.07,0-38.774-14.76-43.312-34.47
			c-0.123-0.536-0.591-0.919-1.141-0.919h-0.005c-0.753,0-1.328,0.699-1.159,1.433C209.426,327.85,228.071,343.391,250.27,343.391z"
			/>
		
			<linearGradient id="SVGID_00000157996433721765975950000004839510205925543853_" gradientUnits="userSpaceOnUse" x1="325.105" y1="141.2497" x2="194.593" y2="364.2384">
			<stop  offset="0.0056" style="stop-color:#3F231F"/>
			<stop  offset="0.0843" style="stop-color:#664C2D"/>
			<stop  offset="0.382" style="stop-color:#A69158"/>
			<stop  offset="0.5618" style="stop-color:#E5D9BC"/>
			<stop  offset="0.7973" style="stop-color:#998260"/>
			<stop  offset="0.8034" style="stop-color:#97805E"/>
			<stop  offset="0.9551" style="stop-color:#7D5534"/>
		</linearGradient>
		<path style="fill:url(#SVGID_00000157996433721765975950000004839510205925543853_);" d="M293.583,249.08
			c0.123,0.536,0.591,0.92,1.141,0.92h0.004c0.753,0,1.328-0.699,1.159-1.433c-4.772-20.777-23.406-36.318-45.617-36.318
			c-0.65,0-1.181,0.531-1.181,1.181c0,0.65,0.531,1.181,1.181,1.181C271.352,214.611,289.056,229.359,293.583,249.08z"/>
		
			<linearGradient id="SVGID_00000148657895864620346680000012491938880646147739_" gradientUnits="userSpaceOnUse" x1="383.2446" y1="175.2779" x2="252.7328" y2="398.2664">
			<stop  offset="0.0056" style="stop-color:#3F231F"/>
			<stop  offset="0.0843" style="stop-color:#664C2D"/>
			<stop  offset="0.382" style="stop-color:#A69158"/>
			<stop  offset="0.5618" style="stop-color:#E5D9BC"/>
			<stop  offset="0.7973" style="stop-color:#998260"/>
			<stop  offset="0.8034" style="stop-color:#97805E"/>
			<stop  offset="0.9551" style="stop-color:#7D5534"/>
		</linearGradient>
		<path style="fill:url(#SVGID_00000148657895864620346680000012491938880646147739_);" d="M295.897,343.391
			c0.661,0,1.181-0.531,1.181-1.181v-35.389c0-0.652-0.529-1.181-1.181-1.181s-1.181,0.529-1.181,1.181v35.389
			C294.716,342.86,295.248,343.391,295.897,343.391z"/>
		
			<linearGradient id="SVGID_00000037673357741565690820000016371601118870062980_" gradientUnits="userSpaceOnUse" x1="285.3437" y1="117.9779" x2="154.8321" y2="340.9659">
			<stop  offset="0.0056" style="stop-color:#3F231F"/>
			<stop  offset="0.0843" style="stop-color:#664C2D"/>
			<stop  offset="0.382" style="stop-color:#A69158"/>
			<stop  offset="0.5618" style="stop-color:#E5D9BC"/>
			<stop  offset="0.7973" style="stop-color:#998260"/>
			<stop  offset="0.8034" style="stop-color:#97805E"/>
			<stop  offset="0.9551" style="stop-color:#7D5534"/>
		</linearGradient>
		<path style="fill:url(#SVGID_00000037673357741565690820000016371601118870062980_);" d="M272.461,179.077
			c0.653,0,1.181-0.529,1.181-1.181s-0.528-1.181-1.181-1.181h-44.374c-0.653,0-1.181,0.529-1.181,1.181s0.528,1.181,1.181,1.181
			H272.461z"/>
	</g>
	<g>
		
			<text transform="matrix(1 0 0 1 130.9282 290.5674)" style="fill:#000100; font-family:'EBGaramond08-Regular'; font-size:50.2329px; letter-spacing:7;">PARFUM</text>
		<text transform="matrix(1 0 0 1 223.4824 240.0337)"><tspan x="0" y="0" style="fill:#FFFFFF; font-family:'EBGaramond08-Regular'; font-size:8.2658px; letter-spacing:1;"></tspan><tspan x="18.92" y="0" style="fill:#FFFFFF; font-family:'EBGaramond08-Regular'; font-size:8.9333px; letter-spacing:1;"> </tspan><tspan x="22.154" y="0" style="fill:#FFFFFF; font-family:'EBGaramond08-Regular'; font-size:11.8082px; letter-spacing:1;"></tspan></text>
		
			<text transform="matrix(1 0 0 1 230.667 320.7148)" style="fill:#FFFFFF; font-family:'EBGaramond08-Regular'; font-size:8.2658px; letter-spacing:1;"></text>
	</g>
</g>
</svg>
